<svg xmlns="http://www.w3.org/2000/svg" viewBox="0 0 30 30"><defs><style>.cls-1{fill:#224f91;}</style></defs><title>calendar</title><g id="Layer_10" data-name="Layer 10"><path class="cls-1" d="M20,7V5H18V7H12V5H10V7H9a3,3,0,0,0-3,3V22a3,3,0,0,0,3,3H21a3,3,0,0,0,3-3V10a3,3,0,0,0-3-3ZM18,19H16V17h2Zm2-2h2v2H20Zm-8,2V17h2v2Zm2,2v2H12V21Zm-4-2H8V17h2Zm6-4V13h2v2Zm-2,0H12V13h2Zm-4,0H8V13h2ZM8,21h2v2H9a1,1,0,0,1-1-1Zm8,2V21h2v2Zm4,0V21h2v1a1,1,0,0,1-1,1Zm2-8H20V13h2ZM8,11V10A1,1,0,0,1,9,9H21a1,1,0,0,1,1,1v1Z"/></g></svg>