<?xml version="1.0" encoding="utf-8"?>
<!-- Generator: Adobe Illustrator 21.0.2, SVG Export Plug-In . SVG Version: 6.00 Build 0)  -->
<svg version="1.2" baseProfile="tiny" id="Layer_1" xmlns="http://www.w3.org/2000/svg" xmlns:xlink="http://www.w3.org/1999/xlink"
	 x="0px" y="0px" viewBox="0 0 504.5 169.7" xml:space="preserve">
<g>
	<path fill="#004bc1" d="M117.2,141c-1.1-2.1-3.2-3.3-5-4.8c-5.1-4.5-8.3-10.1-9.7-16.7c0-0.2-0.1-0.4-0.2-0.7c-6.2,0-12.4,0-18.7,0
		c0-27.1,0-54.3,0-81.4c0.2,0.1,0.3,0.1,0.4,0.2c8.5,5,14.1,12.2,16.7,21.8c0.5,1.7,0.5,3.5,0.7,5.2c0.8,6.2,1.5,12.5,2.3,18.7
		c0.2,1.5,0.4,3,0.6,4.6c-1.2-0.2-2.3-0.1-3.3,0.4c-2.2,0.9-3.6,3.1-3.4,5.4c0.2,2.5,1.8,4.6,4.1,5.2c0.9,0.2,1.8,0.5,2.7,0.7
		c0.2,0,0.5-0.1,0.6-0.2c2.4-4.1,4.5-8.3,6-12.8c2.4-7.2,3.2-14.6,2.8-22.2c-0.2-4.8-0.3-9.7-0.5-14.5c-0.1-3-0.2-6-0.3-9.1
		c-0.1-4.4,1.2-8.2,4-11.6c0.1-0.1,0.1-0.2,0.2-0.4c1.4,1.5,2.3,3,3,4.8c1.1,2.5,1.4,5.2,1.3,7.9c-0.2,3.4-0.2,6.9-0.4,10.3
		c-0.2,4.9-0.4,9.8-0.5,14.7c-0.3,11.1,2.4,21.5,7.9,31.2c0.3,0.5,0.6,1,0.8,1.6c0.2,0.3,0.3,0.5,0.7,0.3c0.8-0.2,1.6-0.4,2.4-0.6
		c3.1-0.8,4.9-3.5,4.3-6.5c-0.5-3-3.3-4.9-6.4-4.5c-0.1,0-0.1,0-0.3,0c0.1-1.1,0.2-2.2,0.4-3.3c0.5-4.4,1.1-8.9,1.6-13.3
		c0.5-3.7,0.8-7.4,1.4-11c0.5-3.1,1.7-6,3.2-8.8c3.2-5.9,7.7-10.5,13.5-13.9c0.2-0.1,0.4-0.2,0.6-0.3c0,27.2,0,54.3,0,81.4
		c-6.2,0-12.4,0-18.7,0c-0.3,1.1-0.5,2.1-0.8,3.1c-1.8,6-5.1,11-9.8,15c-0.5,0.5-1.2,0.8-1.7,1.3C119.1,139,118.2,140,117.2,141z
		 M89.3,49c0,14,0,27.8,0,41.6c0.9,0,1.8,0,2.6,0c0.4,0,0.5-0.2,0.7-0.5c0.9-2.7,2.5-4.8,5-6.3c0.6-0.3,0.7-0.7,0.6-1.3
		c-0.7-5.1-1.3-10.3-1.9-15.4c-0.3-2.1-0.4-4.3-0.8-6.3C94.4,56.4,92.2,52.6,89.3,49z M145.3,90.6c0-13.9,0-27.7,0-41.4
		c0,0-0.1,0-0.2-0.1c-0.9,1.2-1.8,2.5-2.6,3.8c-1.6,2.7-3,5.5-3.4,8.7c-0.6,4.3-1.1,8.6-1.6,12.9c-0.3,2.7-0.7,5.5-1,8.2
		c-0.1,0.5,0,0.8,0.5,1.1c2.5,1.4,4.1,3.6,5.1,6.3c0.1,0.2,0.3,0.5,0.4,0.5C143.5,90.6,144.4,90.6,145.3,90.6z M89.3,96.3
		c0,5.6,0,11.2,0,16.8c4.2,0,8.4,0,12.4,0c0.4-2.7,0.7-5.4,1.1-8.2c-5.1-0.7-8.8-3.3-10.4-8.5C91.4,96.3,90.4,96.3,89.3,96.3z
		 M145.4,96.3c-0.9,0-1.8,0-2.7,0c-0.2,0-0.5,0.2-0.5,0.4c-1.4,4.4-4.4,6.9-8.9,7.9c-0.5,0.1-1,0.2-1.4,0.3c0.4,2.8,0.7,5.5,1.1,8.2
		c4.1,0,8.2,0,12.4,0C145.4,107.4,145.4,101.9,145.4,96.3z M124,100.8c-2.9-4.9-5.1-10-6.7-15.4c-1.6,5.4-3.8,10.5-6.7,15.4
		c2.7,0.7,4.9,2.2,6.7,4.3C119.1,103,121.3,101.6,124,100.8z M120.2,118.7c0,3.9,0,7.8,0,11.7c3.2-3.4,5.3-7.3,6.3-11.7
		C124.4,118.7,122.3,118.7,120.2,118.7z M114.5,118.8c-2.1,0-4.2,0-6.3,0c1.1,4.5,3.1,8.4,6.3,11.8
		C114.5,126.5,114.5,122.7,114.5,118.8z M114.5,113.1c0.2-3.2-2.9-6.8-6-6.9c-0.6,2.2-1,4.5-0.9,6.9
		C109.9,113.1,112.2,113.1,114.5,113.1z M126.2,106.2c-3.2,0.1-6.6,4.1-5.9,6.9c2.3,0,4.5,0,6.9,0
		C127.2,110.7,126.8,108.5,126.2,106.2z"/>
	<g>
		<path fill="#004bc1" d="M205.1,31l8.8,21l8.8-21h2.7v23.9h-2V44.5l0.2-10.6l-8.9,21h-1.6l-8.8-20.9l0.2,10.5v10.4h-2V31H205.1z"/>
		<path fill="#004bc1" d="M230.9,32c0-0.4,0.1-0.7,0.4-0.9c0.2-0.2,0.6-0.4,1-0.4c0.4,0,0.7,0.1,1,0.4c0.2,0.2,0.4,0.6,0.4,0.9
			c0,0.4-0.1,0.7-0.4,0.9s-0.6,0.4-1,0.4c-0.4,0-0.7-0.1-1-0.4C231,32.7,230.9,32.4,230.9,32z M233.2,54.9h-2V37.1h2V54.9z"/>
		<path fill="#004bc1" d="M252.2,54.9h-2v-8.1h-9.5v8.1h-2V37.1h2v8h9.5v-7.9h2V54.9z"/>
		<path fill="#004bc1" d="M257.3,32c0-0.4,0.1-0.7,0.4-0.9c0.2-0.2,0.6-0.4,1-0.4c0.4,0,0.7,0.1,1,0.4c0.2,0.2,0.4,0.6,0.4,0.9
			c0,0.4-0.1,0.7-0.4,0.9c-0.2,0.2-0.6,0.4-1,0.4s-0.7-0.1-1-0.4C257.4,32.7,257.3,32.4,257.3,32z M259.6,54.9h-2V37.1h2V54.9z"/>
		<path fill="#004bc1" d="M271.5,53.6c1.4,0,2.5-0.4,3.4-1.2c0.9-0.8,1.4-1.8,1.5-3h1.9c0,1.1-0.4,2.1-1,3s-1.4,1.6-2.5,2.1
			c-1,0.5-2.1,0.7-3.3,0.7c-2.3,0-4.2-0.8-5.5-2.4c-1.4-1.6-2-3.8-2-6.5v-0.6c0-1.7,0.3-3.3,0.9-4.6s1.5-2.4,2.6-3.1
			c1.2-0.7,2.5-1.1,4-1.1c1.9,0,3.5,0.6,4.8,1.7c1.3,1.2,1.9,2.7,2,4.6h-1.9c-0.1-1.4-0.6-2.5-1.5-3.4c-0.9-0.9-2.1-1.3-3.5-1.3
			c-1.8,0-3.1,0.6-4.1,1.9c-1,1.3-1.5,3.1-1.5,5.4v0.6c0,2.3,0.5,4,1.5,5.3C268.3,52.9,269.7,53.6,271.5,53.6z"/>
		<path fill="#004bc1" d="M294.9,38.8h-6.4v16.1h-2V38.8h-6.2v-1.7H295L294.9,38.8L294.9,38.8z"/>
		<path fill="#004bc1" d="M303.7,55.2c-1.5,0-2.9-0.4-4.1-1.1c-1.2-0.7-2.2-1.8-2.8-3.1s-1-2.8-1-4.5v-0.7c0-1.7,0.3-3.2,1-4.6
			c0.7-1.4,1.6-2.4,2.8-3.2c1.2-0.8,2.5-1.2,3.8-1.2c2.1,0,3.9,0.7,5.1,2.2c1.3,1.5,1.9,3.5,1.9,6v1.1h-12.7v0.4c0,2,0.6,3.7,1.7,5
			c1.2,1.3,2.6,2,4.4,2c1,0,2-0.2,2.8-0.6c0.8-0.4,1.5-1,2.2-1.8l1.2,0.9C308.5,54.2,306.4,55.2,303.7,55.2z M303.3,38.5
			c-1.5,0-2.7,0.5-3.7,1.6s-1.6,2.5-1.8,4.4h10.6v-0.2c0-1.7-0.5-3.1-1.5-4.2C306,39,304.8,38.5,303.3,38.5z"/>
		<path fill="#004bc1" d="M328.4,46.2c0,2.8-0.6,5-1.8,6.6s-2.9,2.4-4.9,2.4c-2.4,0-4.3-0.9-5.6-2.5v9h-1.9V37.1h1.8l0.1,2.5
			c1.3-1.9,3.1-2.8,5.5-2.8c2.1,0,3.8,0.8,5,2.4c1.2,1.6,1.8,3.8,1.8,6.7V46.2z M326.4,45.8c0-2.3-0.5-4-1.4-5.4
			c-0.9-1.3-2.2-2-3.9-2c-1.2,0-2.2,0.3-3.1,0.9c-0.9,0.6-1.5,1.4-2,2.5v8.5c0.5,1,1.2,1.8,2,2.3c0.9,0.5,1.9,0.8,3.1,0.8
			c1.6,0,2.9-0.7,3.9-2C326,50.3,326.4,48.3,326.4,45.8z"/>
		<path fill="#004bc1" d="M339.3,53.6c1.4,0,2.5-0.4,3.4-1.2c0.9-0.8,1.4-1.8,1.5-3h1.9c0,1.1-0.4,2.1-1,3c-0.6,0.9-1.4,1.6-2.5,2.1
			c-1,0.5-2.1,0.7-3.3,0.7c-2.3,0-4.2-0.8-5.5-2.4c-1.4-1.6-2-3.8-2-6.5v-0.6c0-1.7,0.3-3.3,0.9-4.6c0.6-1.4,1.5-2.4,2.6-3.1
			c1.2-0.7,2.5-1.1,4-1.1c1.9,0,3.5,0.6,4.8,1.7c1.3,1.2,1.9,2.7,2,4.6h-1.9c-0.1-1.4-0.6-2.5-1.5-3.4c-0.9-0.9-2.1-1.3-3.5-1.3
			c-1.8,0-3.1,0.6-4.1,1.9c-1,1.3-1.5,3.1-1.5,5.4v0.6c0,2.3,0.5,4,1.5,5.3C336.1,52.9,337.5,53.6,339.3,53.6z"/>
		<path fill="#004bc1" d="M362.8,38.8h-6.4v16.1h-2V38.8h-6.2v-1.7h14.6L362.8,38.8L362.8,38.8z"/>
		<path fill="#004bc1" d="M366.2,54.9V37.1h6.5c2.3,0,4,0.4,5.2,1.2c1.2,0.8,1.8,2,1.8,3.5c0,0.9-0.3,1.7-0.8,2.4
			c-0.5,0.7-1.3,1.2-2.3,1.5c1.2,0.2,2.1,0.7,2.8,1.5c0.7,0.8,1.1,1.7,1.1,2.7c0,1.6-0.6,2.8-1.7,3.6c-1.2,0.9-2.8,1.3-4.9,1.3
			L366.2,54.9L366.2,54.9z M368.1,45.1h5c3.1,0,4.6-1.1,4.6-3.1c0-1.1-0.4-1.9-1.3-2.4c-0.9-0.5-2.1-0.7-3.8-0.7h-4.6V45.1z
			 M368.1,46.7v6.5h5.7c1.5,0,2.6-0.3,3.4-0.9s1.2-1.4,1.2-2.5c0-1-0.4-1.8-1.2-2.3s-1.9-0.9-3.4-0.9L368.1,46.7L368.1,46.7z"/>
		<path fill="#004bc1" d="M383.7,45.7c0-1.7,0.3-3.2,1-4.6c0.7-1.4,1.6-2.4,2.8-3.2c1.2-0.8,2.6-1.1,4.1-1.1c2.4,0,4.3,0.8,5.7,2.5
			c1.5,1.6,2.2,3.9,2.2,6.6v0.4c0,1.7-0.3,3.2-1,4.6c-0.7,1.4-1.6,2.4-2.8,3.2c-1.2,0.7-2.6,1.1-4.1,1.1c-2.3,0-4.3-0.8-5.7-2.5
			s-2.2-3.9-2.2-6.6L383.7,45.7L383.7,45.7z M385.6,46.3c0,2.1,0.5,3.9,1.6,5.2c1.1,1.4,2.5,2,4.3,2c1.8,0,3.2-0.7,4.3-2
			c1.1-1.4,1.6-3.2,1.6-5.4v-0.4c0-1.4-0.2-2.6-0.7-3.7c-0.5-1.1-1.2-2-2.1-2.6c-0.9-0.6-1.9-0.9-3.1-0.9c-1.7,0-3.2,0.7-4.3,2.1
			c-1.1,1.4-1.6,3.2-1.6,5.4L385.6,46.3L385.6,46.3z"/>
		<path fill="#004bc1" d="M214.9,82.3c0,0.8-0.2,1.5-0.7,2.2c-0.5,0.7-1.2,1.2-2,1.6c2,0.7,3,2.1,3,4.1c0,1.6-0.7,2.9-2,3.9
			c-1.3,1-3.1,1.4-5.3,1.4c-1.4,0-2.6-0.2-3.7-0.7c-1.1-0.5-2-1.1-2.6-1.9c-0.6-0.8-0.9-1.8-0.9-3h4c0,0.7,0.3,1.3,1,1.8
			c0.7,0.5,1.5,0.7,2.4,0.7s1.7-0.2,2.3-0.7c0.6-0.5,0.9-1,0.9-1.8c0-0.9-0.2-1.5-0.7-1.9c-0.5-0.4-1.3-0.6-2.3-0.6h-2.9v-2.9h3
			c1.8,0,2.7-0.7,2.7-2.2c0-0.7-0.2-1.3-0.8-1.7c-0.5-0.4-1.2-0.6-2.1-0.6c-0.9,0-1.6,0.2-2.2,0.7c-0.6,0.4-0.9,1-0.9,1.6h-4
			c0-1.6,0.7-2.8,2-3.8s3-1.5,5-1.5c2.2,0,3.9,0.5,5.1,1.4C214.3,79.3,214.9,80.6,214.9,82.3z"/>
		<path fill="#004bc1" d="M229.2,95.1c-0.2-0.3-0.3-0.9-0.5-1.6c-1.3,1.3-2.8,2-4.6,2c-1.8,0-3.2-0.5-4.4-1.5s-1.7-2.3-1.7-3.8
			c0-1.9,0.7-3.3,2.1-4.4c1.4-1,3.4-1.5,6-1.5h2.4v-1.2c0-0.9-0.2-1.6-0.8-2.2c-0.5-0.5-1.3-0.8-2.3-0.8c-0.9,0-1.6,0.2-2.2,0.7
			s-0.9,1-0.9,1.7h-4c0-1,0.3-1.9,1-2.7s1.5-1.5,2.6-2c1.1-0.5,2.3-0.7,3.7-0.7c2.1,0,3.7,0.5,5,1.6c1.2,1,1.9,2.5,1.9,4.4v8
			c0,1.6,0.2,2.9,0.7,3.8v0.3L229.2,95.1L229.2,95.1z M224.8,92.3c0.8,0,1.5-0.2,2.2-0.6c0.7-0.4,1.2-0.9,1.6-1.5v-3.4h-2.1
			c-1.5,0-2.6,0.2-3.3,0.8c-0.7,0.5-1.1,1.2-1.1,2.2c0,0.8,0.2,1.4,0.8,1.8C223.3,92,224,92.3,224.8,92.3z"/>
		<path fill="#004bc1" d="M243.1,88.1h-2v7h-4V77.4h4v7.1h1.8l4.9-7.1h4.9l-6.4,8.5l6.9,9.2H248L243.1,88.1z"/>
		<path fill="#004bc1" d="M253.7,86.1c0-1.7,0.3-3.3,1-4.7c0.7-1.4,1.6-2.5,2.9-3.2c1.2-0.7,2.7-1.1,4.3-1.1c2.4,0,4.3,0.8,5.8,2.3
			c1.5,1.5,2.3,3.6,2.4,6.1l0,0.9c0,1.7-0.3,3.3-1,4.7c-0.7,1.4-1.6,2.4-2.9,3.2c-1.2,0.7-2.7,1.1-4.3,1.1c-2.5,0-4.5-0.8-6-2.5
			c-1.5-1.7-2.3-3.9-2.3-6.7V86.1z M257.6,86.5c0,1.8,0.4,3.2,1.1,4.3c0.7,1,1.8,1.6,3.1,1.6s2.4-0.5,3.1-1.6c0.7-1,1.1-2.6,1.1-4.6
			c0-1.8-0.4-3.2-1.2-4.3c-0.8-1.1-1.8-1.6-3.1-1.6c-1.3,0-2.3,0.5-3.1,1.6C258,82.8,257.6,84.4,257.6,86.5z"/>
		<path fill="#004bc1" d="M289,86.5c0,2.8-0.6,4.9-1.9,6.6s-2.9,2.5-5,2.5c-1.9,0-3.5-0.6-4.7-1.9v8.4h-4V77.4h3.7l0.2,1.8
			c1.2-1.4,2.8-2.1,4.8-2.1c2.2,0,3.9,0.8,5.1,2.4c1.2,1.6,1.8,3.9,1.8,6.7V86.5z M285.1,86.1c0-1.8-0.4-3.2-1.1-4.2
			c-0.7-1-1.7-1.6-3-1.6c-1.6,0-2.8,0.7-3.5,2v7.9c0.7,1.4,1.9,2.1,3.5,2.1c1.3,0,2.3-0.5,3-1.5C284.7,89.7,285.1,88.2,285.1,86.1z"
			/>
		<path fill="#004bc1" d="M292.2,92c1.1-1.2,1.8-2.4,2.2-3.5c0.4-1.1,0.6-2.5,0.7-4.3l0.2-6.8h12.3v14.5h2.5v8.5h-4v-5.3h-11.4v5.3
			h-4l0-8.5L292.2,92L292.2,92z M296.8,92h6.8V80.8h-4.5l-0.1,3.4C298.9,87.5,298.2,90,296.8,92z"/>
		<path fill="#004bc1" d="M312.2,86.1c0-1.7,0.3-3.3,1-4.7c0.7-1.4,1.6-2.5,2.9-3.2c1.2-0.7,2.7-1.1,4.3-1.1c2.4,0,4.3,0.8,5.8,2.3
			c1.5,1.5,2.3,3.6,2.4,6.1l0,0.9c0,1.7-0.3,3.3-1,4.7c-0.7,1.4-1.6,2.4-2.9,3.2c-1.2,0.7-2.7,1.1-4.3,1.1c-2.5,0-4.5-0.8-6-2.5
			c-1.5-1.7-2.3-3.9-2.3-6.7V86.1z M316.1,86.5c0,1.8,0.4,3.2,1.1,4.3c0.7,1,1.8,1.6,3.1,1.6s2.4-0.5,3.1-1.6c0.7-1,1.1-2.6,1.1-4.6
			c0-1.8-0.4-3.2-1.2-4.3c-0.8-1.1-1.8-1.6-3.1-1.6c-1.3,0-2.3,0.5-3.1,1.6C316.5,82.8,316.1,84.4,316.1,86.5z"/>
		<path fill="#004bc1" d="M347,95.1h-4V88h-6.9v7.1h-4V77.4h4v7.4h6.9v-7.4h4V95.1z"/>
		<path fill="#004bc1" d="M366.3,95.1h-4V88h-6.9v7.1h-4V77.4h4v7.4h6.9v-7.4h4V95.1z"/>
		<path fill="#004bc1" d="M381.6,77.4h4v17.7h-4V83.3l-6.9,11.8h-4V77.4h4v11.8L381.6,77.4z"/>
		<path fill="#004bc1" d="M396.1,83.2l3.4-5.8h4.4l-5.4,8.7l5.6,9h-4.4l-3.5-6.1l-3.5,6.1h-4.4l5.6-9l-5.4-8.7h4.4L396.1,83.2z"/>
		<path fill="#004bc1" d="M422.3,92.3c1,0,1.8-0.3,2.5-0.9c0.7-0.6,1-1.3,1-2.1h3.7c0,1.1-0.4,2.1-1,3.1c-0.7,0.9-1.5,1.7-2.6,2.3
			s-2.3,0.8-3.6,0.8c-2.5,0-4.4-0.8-5.9-2.4c-1.4-1.6-2.2-3.8-2.2-6.7V86c0-2.7,0.7-4.8,2.2-6.5c1.4-1.6,3.4-2.4,5.9-2.4
			c2.1,0,3.8,0.6,5.1,1.8c1.3,1.2,2,2.8,2.1,4.8h-3.7c0-1-0.4-1.8-1-2.5c-0.7-0.7-1.5-1-2.5-1c-1.3,0-2.3,0.5-3,1.4
			c-0.7,0.9-1.1,2.3-1.1,4.3v0.6c0,1.9,0.3,3.4,1,4.3C420,91.8,421,92.3,422.3,92.3z"/>
		<path fill="#004bc1" d="M447.6,95.1h-4V80.6h-6.9v14.5h-4V77.4h14.9V95.1z"/>
		<path fill="#004bc1" d="M467.3,86.5c0,2.8-0.6,4.9-1.9,6.6c-1.2,1.6-2.9,2.5-5,2.5c-1.9,0-3.5-0.6-4.7-1.9v8.4h-4V77.4h3.7
			l0.2,1.8c1.2-1.4,2.8-2.1,4.8-2.1c2.2,0,3.9,0.8,5.1,2.4c1.2,1.6,1.8,3.9,1.8,6.7L467.3,86.5L467.3,86.5z M463.4,86.1
			c0-1.8-0.4-3.2-1.1-4.2c-0.7-1-1.7-1.6-3-1.6c-1.6,0-2.8,0.7-3.5,2v7.9c0.7,1.4,1.9,2.1,3.5,2.1c1.3,0,2.3-0.5,3-1.5
			C463,89.7,463.4,88.2,463.4,86.1z"/>
		<path fill="#004bc1" d="M481.3,95.1c-0.2-0.3-0.3-0.9-0.5-1.6c-1.3,1.3-2.8,2-4.6,2c-1.8,0-3.2-0.5-4.4-1.5
			c-1.1-1-1.7-2.3-1.7-3.8c0-1.9,0.7-3.3,2.1-4.4s3.4-1.5,6-1.5h2.4v-1.2c0-0.9-0.2-1.6-0.8-2.2c-0.5-0.5-1.3-0.8-2.3-0.8
			c-0.9,0-1.6,0.2-2.2,0.7c-0.6,0.5-0.9,1-0.9,1.7h-4c0-1,0.3-1.9,1-2.7c0.7-0.9,1.5-1.5,2.6-2c1.1-0.5,2.3-0.7,3.7-0.7
			c2.1,0,3.7,0.5,5,1.6c1.2,1,1.9,2.5,1.9,4.4v8c0,1.6,0.2,2.9,0.7,3.8v0.3L481.3,95.1L481.3,95.1z M476.9,92.3
			c0.8,0,1.5-0.2,2.2-0.6c0.7-0.4,1.2-0.9,1.6-1.5v-3.4h-2.1c-1.5,0-2.6,0.2-3.3,0.8c-0.7,0.5-1.1,1.2-1.1,2.2
			c0,0.8,0.2,1.4,0.8,1.8C475.4,92,476.1,92.3,476.9,92.3z"/>
		<path fill="#004bc1" d="M489.2,95.1V77.4h7.2c2.4,0,4.3,0.4,5.5,1.3c1.3,0.9,1.9,2.1,1.9,3.7c0,0.8-0.2,1.6-0.8,2.2
			c-0.5,0.7-1.3,1.2-2.3,1.5c1.2,0.2,2.1,0.7,2.8,1.5c0.7,0.7,1,1.6,1,2.6c0,1.6-0.6,2.9-1.8,3.8c-1.2,0.9-3,1.3-5.3,1.3L489.2,95.1
			L489.2,95.1z M493.1,84.7h3.3c2.3,0,3.4-0.7,3.4-2c0-1.4-1.1-2.1-3.2-2.2h-3.5V84.7z M493.1,87.6V92h4.4c2.1,0,3.1-0.7,3.1-2.2
			s-1-2.2-3.1-2.2H493.1z"/>
		<path fill="#004bc1" d="M210.4,126.8l6.8-15.3h2.4l-9.2,20l-0.6,1.1c-1.2,2.1-2.9,3.1-5.1,3.1c-0.7,0-1.2-0.1-1.5-0.2l0.2-1.6
			c0.2,0.1,0.7,0.1,1.4,0.1c1.4,0,2.4-0.7,3.3-2.1l0.4-0.7l1-2.1l-9-17.5h2.3L210.4,126.8z"/>
		<path fill="#004bc1" d="M226.2,127.3h-2.7v8.1h-2v-17.7h2v7.9h2.7l6.5-7.9h2.5l-7.3,8.6l8.1,9.1h-2.6L226.2,127.3z"/>
		<path fill="#004bc1" d="M253,126.7c0,2.8-0.6,5-1.8,6.6c-1.2,1.6-2.9,2.4-4.9,2.4c-2.4,0-4.3-0.9-5.6-2.5v9h-1.9v-24.6h1.8
			l0.1,2.5c1.3-1.9,3.1-2.8,5.5-2.8c2.1,0,3.8,0.8,5,2.4c1.2,1.6,1.8,3.8,1.8,6.7V126.7z M251,126.4c0-2.3-0.5-4-1.4-5.4
			c-0.9-1.3-2.2-2-3.9-2c-1.2,0-2.2,0.3-3.1,0.9c-0.9,0.6-1.5,1.4-2,2.5v8.5c0.5,1,1.2,1.8,2,2.3c0.9,0.5,1.9,0.8,3.1,0.8
			c1.6,0,2.9-0.7,3.9-2C250.6,130.8,251,128.9,251,126.4z"/>
		<path fill="#004bc1" d="M268.5,135.4c-0.2-0.6-0.3-1.4-0.4-2.5c-0.7,0.9-1.6,1.6-2.6,2.1s-2.2,0.7-3.4,0.7c-1.7,0-3.1-0.5-4.1-1.4
			c-1.1-0.9-1.6-2.1-1.6-3.6c0-1.7,0.7-3.1,2.2-4.1c1.4-1,3.4-1.5,6-1.5h3.6v-2c0-1.3-0.4-2.3-1.2-3c-0.8-0.7-1.9-1.1-3.4-1.1
			c-1.4,0-2.5,0.4-3.4,1c-0.9,0.7-1.4,1.5-1.4,2.5l-2,0c0-1.4,0.7-2.6,2-3.7c1.3-1,2.9-1.6,4.8-1.6c2,0,3.5,0.5,4.7,1.5
			c1.2,1,1.7,2.4,1.8,4.1v8.4c0,1.7,0.2,3,0.5,3.9v0.2L268.5,135.4L268.5,135.4z M262.4,134c1.3,0,2.5-0.3,3.5-0.9
			c1-0.6,1.8-1.5,2.3-2.5v-3.9h-3.5c-2,0-3.5,0.4-4.6,1.1s-1.6,1.6-1.6,2.9c0,1,0.4,1.8,1.1,2.5C260.2,133.6,261.2,134,262.4,134z"
			/>
		<path fill="#004bc1" d="M271.8,112.7c0-0.4,0.1-0.7,0.4-0.9c0.2-0.2,0.6-0.4,1-0.4c0.4,0,0.7,0.1,1,0.4c0.2,0.2,0.4,0.6,0.4,0.9
			c0,0.4-0.1,0.7-0.4,0.9c-0.2,0.2-0.6,0.4-1,0.4c-0.4,0-0.8-0.1-1-0.4C271.9,113.4,271.8,113.1,271.8,112.7z M277.5,135.4h-2v-17.7
			h2V135.4z M278.9,112.7c0-0.4,0.1-0.7,0.4-0.9c0.2-0.2,0.6-0.4,1-0.4c0.4,0,0.8,0.1,1,0.4c0.2,0.2,0.4,0.6,0.4,0.9
			c0,0.4-0.1,0.7-0.4,0.9c-0.2,0.2-0.6,0.4-1,0.4c-0.4,0-0.7-0.1-1-0.4C279,113.4,278.9,113.1,278.9,112.7z"/>
		<path fill="#004bc1" d="M296.4,135.4h-2v-8.1h-9.5v8.1h-2v-17.7h2v7.9h9.5v-7.9h2V135.4z"/>
		<path fill="#004bc1" d="M313.3,117.7h2v17.7h-2v-14.6l-9.6,14.6h-1.9v-17.7h1.9v14.6L313.3,117.7z"/>
	</g>
	<path fill="#FFCE00" d="M39.1,169.7C14.2,148.4,0,117.5,0,84.8h23.7c0,13.1,2.8,25.7,8.3,37.4c5.3,11.2,13,21.4,22.5,29.4
		L39.1,169.7z"/>
	<path fill="#004bc1" d="M23.7,84.8H0C0,52.2,14.2,21.2,39.1,0l15.4,18C45.1,26.1,37.3,36.3,32,47.4C26.5,59.2,23.7,71.8,23.7,84.8z
		"/>
</g>
</svg>
